<?xml version="1.0" ?><!DOCTYPE svg  PUBLIC '-//W3C//DTD SVG 1.1//EN'  'http://www.w3.org/Graphics/SVG/1.1/DTD/svg11.dtd'><svg enable-background="new 0 0 800 800" height="800px" id="GUIDE" version="1.1" viewBox="0 0 800 800" width="800px" xml:space="preserve" xmlns="http://www.w3.org/2000/svg" xmlns:cc="http://creativecommons.org/ns#" xmlns:dc="http://purl.org/dc/elements/1.1/" xmlns:inkscape="http://www.inkscape.org/namespaces/inkscape" xmlns:rdf="http://www.w3.org/1999/02/22-rdf-syntax-ns#" xmlns:sodipodi="http://sodipodi.sourceforge.net/DTD/sodipodi-0.dtd" xmlns:svg="http://www.w3.org/2000/svg" xmlns:xlink="http://www.w3.org/1999/xlink"><path d="M737.633,318.796h-51.666c-14.667-43.373-39.222-83.124-72.543-116.448  c-36.314-36.315-80.262-62.217-128.212-76.25v-52.84c0-10.458-8.479-18.938-18.939-18.938H333.727  c-10.455,0-18.938,8.48-18.938,18.938v52.84c-47.95,14.033-91.892,39.938-128.207,76.25  c-33.321,33.324-57.881,73.075-72.543,116.448H62.367c-10.461,0-18.938,8.48-18.938,18.939v132.552  c0,10.458,8.478,18.936,18.938,18.936h46.728c11.674,35.111,32.688,63.343,62.88,84.449c3.185,31.103,10.827,58.204,22.79,80.647  c12.547,23.555,30.191,42.732,52.43,57.014c36.501,23.434,85.058,34.348,152.811,34.348c67.862,0,116.476-10.952,152.998-34.469  c22.249-14.331,39.888-33.584,52.413-57.223c11.859-22.373,19.436-49.363,22.609-80.317c30.19-21.107,51.212-49.338,62.88-84.449  h46.728c10.461,0,18.938-8.478,18.938-18.936V337.735C756.571,327.276,748.094,318.796,737.633,318.796z M100.469,451.348H81.307  v-94.674h22.626c-3.803,19.258-5.752,39.024-5.752,59.094C98.181,428.173,98.945,440.038,100.469,451.348z M352.666,92.196h94.674  v25.438c-15.521-2.431-31.334-3.69-47.335-3.69c-16.011,0-31.819,1.26-47.339,3.69V92.196z M400.005,707.809  c-112.988,0-169.396-32.896-186.329-111.753c45.749,18.627,105.843,27.4,186.329,27.4c80.486,0,140.581-8.773,186.33-27.4  C569.396,674.908,512.962,707.809,400.005,707.809z M603.455,544.592c-2.465,0.913-4.693,2.33-6.566,4.13  c-1.917,1.143-3.861,2.269-5.86,3.35c-42.313,22.862-103.02,33.511-191.022,33.511c-88.014,0-148.714-10.647-191.032-33.511  c-49.065-26.511-72.915-71.097-72.915-136.304c0-145.539,118.407-263.945,263.947-263.945  c145.536,0,263.942,118.407,263.942,263.945C663.947,475.201,644.118,517.494,603.455,544.592z M718.693,451.348H699.53  c1.529-11.31,2.29-23.175,2.29-35.58c0-20.068-1.945-39.836-5.747-59.094h22.62V451.348z" fill="#041C3F"/><path d="M549.774,249.855c-40.271-31.276-93.461-48.5-149.771-48.5c-56.319,0-109.509,17.224-149.773,48.5  c-41.685,32.374-64.639,75.794-64.639,122.258c0,21.296,4.834,38.661,14.377,51.612c4.835,6.562,13.641,16.284,34.229,24.924  c33.853,14.206,88.09,21.109,165.807,21.109c77.712,0,131.95-6.903,165.802-21.112c20.583-8.637,29.39-18.356,34.229-24.921  c9.538-12.951,14.377-30.316,14.377-51.612C614.412,325.649,591.453,282.229,549.774,249.855z M569.537,401.265  c-1.382,1.877-5.06,6.867-18.387,12.457c-28.718,12.054-79.573,18.163-151.146,18.163c-71.576,0-122.433-6.109-151.155-18.16  c-13.323-5.593-17-10.583-18.382-12.46c-4.583-6.217-7.003-16.298-7.003-29.15c0-34.511,17.759-67.306,49.999-92.345  c33.655-26.141,78.596-40.535,126.541-40.535c47.94,0,92.876,14.395,126.536,40.535c32.24,25.04,49.994,57.834,49.994,92.345  C576.535,384.967,574.115,395.048,569.537,401.265z" fill="#041C3F"/></svg>